<mxfile host="app.diagrams.net" agent="Mozilla/5.0 (Windows NT 10.0; Win64; x64) AppleWebKit/537.36 (KHTML, like Gecko) Chrome/130.0.0.0 Safari/537.36" version="24.8.3" pages="2">
  <diagram name="Page-1" id="WYB84IZI063XpdSWgx6y">
    <mxGraphModel dx="794" dy="492" grid="0" gridSize="10" guides="1" tooltips="1" connect="1" arrows="1" fold="1" page="0" pageScale="1" pageWidth="850" pageHeight="1100" math="0" shadow="0">
      <root>
        <mxCell id="0" />
        <mxCell id="1" parent="0" />
        <mxCell id="kTchixmaUQA3eN3Oajts-1" value="book" style="whiteSpace=wrap;html=1;aspect=fixed;" vertex="1" parent="1">
          <mxGeometry x="127" y="215" width="80" height="80" as="geometry" />
        </mxCell>
        <mxCell id="kTchixmaUQA3eN3Oajts-2" value="author" style="whiteSpace=wrap;html=1;aspect=fixed;" vertex="1" parent="1">
          <mxGeometry x="473" y="215" width="80" height="80" as="geometry" />
        </mxCell>
        <mxCell id="kTchixmaUQA3eN3Oajts-4" value="&lt;div&gt;author_id PK&lt;/div&gt;&lt;div&gt;author_name&lt;/div&gt;&lt;div&gt;author_phone_number&lt;/div&gt;" style="text;html=1;align=center;verticalAlign=middle;whiteSpace=wrap;rounded=0;" vertex="1" parent="1">
          <mxGeometry x="471" y="304" width="91" height="30" as="geometry" />
        </mxCell>
        <mxCell id="kTchixmaUQA3eN3Oajts-5" value="book_id PK&lt;div&gt;book_name&lt;/div&gt;&lt;div&gt;ISBN&lt;/div&gt;&lt;div&gt;barcode&lt;/div&gt;&lt;div&gt;release_date&lt;/div&gt;" style="text;html=1;align=center;verticalAlign=middle;whiteSpace=wrap;rounded=0;" vertex="1" parent="1">
          <mxGeometry x="127" y="292" width="82" height="79" as="geometry" />
        </mxCell>
        <mxCell id="kTchixmaUQA3eN3Oajts-6" value="book_author" style="whiteSpace=wrap;html=1;aspect=fixed;" vertex="1" parent="1">
          <mxGeometry x="300" y="215" width="80" height="80" as="geometry" />
        </mxCell>
        <mxCell id="kTchixmaUQA3eN3Oajts-7" value="" style="edgeStyle=entityRelationEdgeStyle;fontSize=12;html=1;endArrow=ERoneToMany;startArrow=ERmandOne;rounded=0;exitX=1;exitY=0.5;exitDx=0;exitDy=0;entryX=0;entryY=0.5;entryDx=0;entryDy=0;" edge="1" parent="1" source="kTchixmaUQA3eN3Oajts-17" target="kTchixmaUQA3eN3Oajts-6">
          <mxGeometry width="100" height="100" relative="1" as="geometry">
            <mxPoint x="226" y="195" as="sourcePoint" />
            <mxPoint x="326" y="95" as="targetPoint" />
          </mxGeometry>
        </mxCell>
        <mxCell id="kTchixmaUQA3eN3Oajts-8" value="" style="edgeStyle=entityRelationEdgeStyle;fontSize=12;html=1;endArrow=ERoneToMany;startArrow=ERmandOne;rounded=0;exitX=0;exitY=0.5;exitDx=0;exitDy=0;entryX=1;entryY=0.5;entryDx=0;entryDy=0;" edge="1" parent="1" target="kTchixmaUQA3eN3Oajts-6">
          <mxGeometry width="100" height="100" relative="1" as="geometry">
            <mxPoint x="380" y="365.5" as="sourcePoint" />
            <mxPoint x="446" y="310" as="targetPoint" />
          </mxGeometry>
        </mxCell>
        <mxCell id="kTchixmaUQA3eN3Oajts-9" value="intermediary table" style="text;html=1;align=center;verticalAlign=middle;whiteSpace=wrap;rounded=0;" vertex="1" parent="1">
          <mxGeometry x="308" y="181" width="60" height="30" as="geometry" />
        </mxCell>
        <mxCell id="kTchixmaUQA3eN3Oajts-10" value="book_author_id PK&lt;div&gt;book_id FK&lt;/div&gt;&lt;div&gt;author_id FK&lt;/div&gt;&lt;div&gt;abc&lt;/div&gt;&lt;div&gt;def&lt;/div&gt;" style="text;html=1;align=center;verticalAlign=middle;whiteSpace=wrap;rounded=0;" vertex="1" parent="1">
          <mxGeometry x="238" y="316.5" width="211" height="30" as="geometry" />
        </mxCell>
        <mxCell id="kTchixmaUQA3eN3Oajts-11" value="user" style="whiteSpace=wrap;html=1;aspect=fixed;" vertex="1" parent="1">
          <mxGeometry x="123" y="416" width="80" height="80" as="geometry" />
        </mxCell>
        <mxCell id="kTchixmaUQA3eN3Oajts-12" value="product" style="whiteSpace=wrap;html=1;aspect=fixed;" vertex="1" parent="1">
          <mxGeometry x="485" y="413" width="80" height="80" as="geometry" />
        </mxCell>
        <mxCell id="kTchixmaUQA3eN3Oajts-13" value="transaction" style="whiteSpace=wrap;html=1;aspect=fixed;" vertex="1" parent="1">
          <mxGeometry x="303.5" y="416" width="80" height="80" as="geometry" />
        </mxCell>
        <mxCell id="kTchixmaUQA3eN3Oajts-14" value="user_id PK&lt;div&gt;user_name&lt;/div&gt;&lt;div&gt;phone_number&lt;/div&gt;&lt;div&gt;email&lt;/div&gt;" style="text;html=1;align=center;verticalAlign=middle;whiteSpace=wrap;rounded=0;" vertex="1" parent="1">
          <mxGeometry x="122" y="499" width="82" height="79" as="geometry" />
        </mxCell>
        <mxCell id="kTchixmaUQA3eN3Oajts-15" value="product_id&lt;div&gt;product_name&lt;/div&gt;&lt;div&gt;dimension&lt;/div&gt;&lt;div&gt;weight&lt;/div&gt;" style="text;html=1;align=center;verticalAlign=middle;whiteSpace=wrap;rounded=0;" vertex="1" parent="1">
          <mxGeometry x="484" y="491" width="82" height="79" as="geometry" />
        </mxCell>
        <mxCell id="kTchixmaUQA3eN3Oajts-16" value="transaction_id PK&lt;div&gt;user_id FK&lt;/div&gt;&lt;div&gt;product_id FK&lt;/div&gt;&lt;div&gt;trx_date&lt;/div&gt;&lt;div&gt;shipping_date&lt;/div&gt;&lt;div&gt;qty&lt;/div&gt;&lt;div&gt;price&lt;/div&gt;&lt;div&gt;total_price&lt;br&gt;&lt;div&gt;&lt;br&gt;&lt;/div&gt;&lt;/div&gt;" style="text;html=1;align=center;verticalAlign=middle;whiteSpace=wrap;rounded=0;" vertex="1" parent="1">
          <mxGeometry x="302.5" y="499" width="82" height="150" as="geometry" />
        </mxCell>
        <mxCell id="kTchixmaUQA3eN3Oajts-18" value="" style="edgeStyle=entityRelationEdgeStyle;fontSize=12;html=1;endArrow=ERoneToMany;startArrow=ERmandOne;rounded=0;exitX=1;exitY=0.5;exitDx=0;exitDy=0;entryX=0;entryY=0.5;entryDx=0;entryDy=0;" edge="1" parent="1" source="kTchixmaUQA3eN3Oajts-1" target="kTchixmaUQA3eN3Oajts-17">
          <mxGeometry width="100" height="100" relative="1" as="geometry">
            <mxPoint x="207" y="255" as="sourcePoint" />
            <mxPoint x="300" y="255" as="targetPoint" />
          </mxGeometry>
        </mxCell>
        <mxCell id="kTchixmaUQA3eN3Oajts-17" value="" style="rhombus;whiteSpace=wrap;html=1;" vertex="1" parent="1">
          <mxGeometry x="225" y="230" width="50" height="55" as="geometry" />
        </mxCell>
        <mxCell id="kTchixmaUQA3eN3Oajts-20" value="" style="edgeStyle=entityRelationEdgeStyle;fontSize=12;html=1;endArrow=ERoneToMany;startArrow=ERmandOne;rounded=0;exitX=0;exitY=0.5;exitDx=0;exitDy=0;entryX=1;entryY=0.5;entryDx=0;entryDy=0;" edge="1" parent="1" source="kTchixmaUQA3eN3Oajts-23" target="kTchixmaUQA3eN3Oajts-21">
          <mxGeometry width="100" height="100" relative="1" as="geometry">
            <mxPoint x="262" y="848" as="sourcePoint" />
            <mxPoint x="219" y="958.5" as="targetPoint" />
          </mxGeometry>
        </mxCell>
        <mxCell id="kTchixmaUQA3eN3Oajts-21" value="orders" style="whiteSpace=wrap;html=1;aspect=fixed;" vertex="1" parent="1">
          <mxGeometry x="129" y="704" width="80" height="80" as="geometry" />
        </mxCell>
        <mxCell id="kTchixmaUQA3eN3Oajts-22" value="order_id PK&lt;div&gt;star_id FK&lt;br&gt;&lt;div&gt;order_date&lt;/div&gt;&lt;div&gt;&lt;br&gt;&lt;/div&gt;&lt;/div&gt;" style="text;html=1;align=center;verticalAlign=middle;whiteSpace=wrap;rounded=0;" vertex="1" parent="1">
          <mxGeometry x="114" y="778" width="103" height="96" as="geometry" />
        </mxCell>
        <mxCell id="kTchixmaUQA3eN3Oajts-23" value="star" style="whiteSpace=wrap;html=1;aspect=fixed;" vertex="1" parent="1">
          <mxGeometry x="281" y="704" width="80" height="80" as="geometry" />
        </mxCell>
        <mxCell id="kTchixmaUQA3eN3Oajts-24" value="&lt;div&gt;star_id PK&lt;/div&gt;&lt;div&gt;star&lt;/div&gt;&lt;div&gt;star_meaning&lt;/div&gt;&lt;div&gt;rating_date&lt;/div&gt;" style="text;html=1;align=center;verticalAlign=middle;whiteSpace=wrap;rounded=0;" vertex="1" parent="1">
          <mxGeometry x="268" y="774" width="103" height="96" as="geometry" />
        </mxCell>
        <mxCell id="kTchixmaUQA3eN3Oajts-25" value="" style="edgeStyle=entityRelationEdgeStyle;fontSize=12;html=1;endArrow=ERoneToMany;startArrow=ERmandOne;rounded=0;exitX=0;exitY=0.5;exitDx=0;exitDy=0;entryX=1;entryY=0.5;entryDx=0;entryDy=0;" edge="1" parent="1">
          <mxGeometry width="100" height="100" relative="1" as="geometry">
            <mxPoint x="483" y="265" as="sourcePoint" />
            <mxPoint x="462" y="265" as="targetPoint" />
            <Array as="points">
              <mxPoint x="238" y="731" />
              <mxPoint x="224" y="536" />
            </Array>
          </mxGeometry>
        </mxCell>
      </root>
    </mxGraphModel>
  </diagram>
  <diagram id="pTX9Vx6Rg0xXA8B6ACwH" name="Page-2">
    <mxGraphModel dx="1194" dy="492" grid="0" gridSize="10" guides="1" tooltips="1" connect="1" arrows="1" fold="1" page="0" pageScale="1" pageWidth="850" pageHeight="1100" math="0" shadow="0">
      <root>
        <mxCell id="0" />
        <mxCell id="1" parent="0" />
        <mxCell id="o-yQx5FVon8fowpq4nCO-3" value="DB" style="shape=cylinder3;whiteSpace=wrap;html=1;boundedLbl=1;backgroundOutline=1;size=15;" vertex="1" parent="1">
          <mxGeometry x="-102" y="124" width="60" height="80" as="geometry" />
        </mxCell>
        <mxCell id="o-yQx5FVon8fowpq4nCO-4" value="DWH" style="shape=cylinder3;whiteSpace=wrap;html=1;boundedLbl=1;backgroundOutline=1;size=15;" vertex="1" parent="1">
          <mxGeometry x="119" y="124" width="60" height="80" as="geometry" />
        </mxCell>
        <mxCell id="o-yQx5FVon8fowpq4nCO-5" style="edgeStyle=orthogonalEdgeStyle;rounded=0;orthogonalLoop=1;jettySize=auto;html=1;entryX=0;entryY=0.5;entryDx=0;entryDy=0;entryPerimeter=0;" edge="1" parent="1" source="o-yQx5FVon8fowpq4nCO-3" target="o-yQx5FVon8fowpq4nCO-4">
          <mxGeometry relative="1" as="geometry" />
        </mxCell>
        <mxCell id="o-yQx5FVon8fowpq4nCO-6" value="Excel" style="whiteSpace=wrap;html=1;aspect=fixed;" vertex="1" parent="1">
          <mxGeometry x="-108" y="238" width="80" height="80" as="geometry" />
        </mxCell>
        <mxCell id="o-yQx5FVon8fowpq4nCO-7" style="edgeStyle=orthogonalEdgeStyle;rounded=0;orthogonalLoop=1;jettySize=auto;html=1;entryX=0.5;entryY=1;entryDx=0;entryDy=0;entryPerimeter=0;" edge="1" parent="1" source="o-yQx5FVon8fowpq4nCO-6" target="o-yQx5FVon8fowpq4nCO-4">
          <mxGeometry relative="1" as="geometry" />
        </mxCell>
        <mxCell id="o-yQx5FVon8fowpq4nCO-8" value="profit&lt;div&gt;nett_profit = total_price (DB) x PPn (excel)&lt;/div&gt;" style="text;html=1;align=center;verticalAlign=middle;whiteSpace=wrap;rounded=0;" vertex="1" parent="1">
          <mxGeometry x="44" y="81" width="237" height="30" as="geometry" />
        </mxCell>
      </root>
    </mxGraphModel>
  </diagram>
</mxfile>
